<?xml version="1.0" encoding="utf-8"?>
<!-- Generator: Adobe Illustrator 18.1.1, SVG Export Plug-In . SVG Version: 6.00 Build 0)  -->
<!DOCTYPE svg PUBLIC "-//W3C//DTD SVG 1.1//EN" "http://www.w3.org/Graphics/SVG/1.1/DTD/svg11.dtd">
<svg version="1.1" id="_x31_0" xmlns="http://www.w3.org/2000/svg" xmlns:xlink="http://www.w3.org/1999/xlink" x="0px" y="0px"
	 viewBox="0 0 512 512" style="enable-background:new 0 0 512 512;" xml:space="preserve">
<style type="text/css">
	.st0{fill:#000000;}
</style>
<g>
	<path class="st0" d="M363.326,39.32h-43.07V14.367C320.256,6.465,313.791,0,305.889,0h-99.778c-7.902,0-14.367,6.465-14.367,14.367
		V39.32h-43.07c-32.782,0-59.45,26.668-59.45,59.45V452.55c0,32.782,26.668,59.45,59.45,59.45h214.652
		c32.782,0,59.449-26.668,59.449-59.45V98.77C422.775,65.988,396.108,39.32,363.326,39.32z M140.725,98.77
		c0-4.371,3.578-7.95,7.95-7.95h214.652c4.371,0,7.949,3.578,7.949,7.95V452.55c0,4.371-3.578,7.95-7.949,7.95H148.674
		c-4.371,0-7.95-3.578-7.95-7.95V98.77z"/>
	<rect x="179.463" y="235.606" class="st0" width="153.074" height="80.11"/>
	<rect x="179.463" y="341.465" class="st0" width="153.074" height="80.114"/>
</g>
</svg>
