<?xml version="1.0" encoding="utf-8"?>
<!-- Generator: Adobe Illustrator 18.1.1, SVG Export Plug-In . SVG Version: 6.00 Build 0)  -->
<!DOCTYPE svg PUBLIC "-//W3C//DTD SVG 1.1//EN" "http://www.w3.org/Graphics/SVG/1.1/DTD/svg11.dtd">
<svg version="1.1" id="_x31_0" xmlns="http://www.w3.org/2000/svg" xmlns:xlink="http://www.w3.org/1999/xlink" x="0px" y="0px"
	 viewBox="0 0 512 512" style="enable-background:new 0 0 512 512;" xml:space="preserve">
<style type="text/css">
	.st0{fill:#000000;}
</style>
<g>
	<path class="st0" d="M363.324,39.32h-43.07V14.367C320.254,6.465,313.789,0,305.887,0h-99.778c-7.902,0-14.363,6.465-14.363,14.367
		V39.32h-43.074c-32.782,0-59.45,26.668-59.45,59.45V452.55c0,32.782,26.668,59.45,59.45,59.45h214.652
		c32.782,0,59.453-26.668,59.453-59.45V98.77C422.777,65.988,396.106,39.32,363.324,39.32z M140.723,98.77
		c0-4.371,3.578-7.95,7.95-7.95h214.652c4.375,0,7.953,3.578,7.953,7.95V452.55c0,4.371-3.578,7.95-7.953,7.95H148.672
		c-4.371,0-7.95-3.578-7.95-7.95V98.77z"/>
	<polygon class="st0" points="179.465,421.418 179.465,421.578 332.536,421.578 332.536,341.469 180.09,341.469 179.621,341.465 
		179.621,341.469 179.465,341.469 179.465,421.176 179.465,421.418 	"/>
</g>
</svg>
