<?xml version="1.0" encoding="iso-8859-1"?>
<!-- Generator: Adobe Illustrator 19.0.0, SVG Export Plug-In . SVG Version: 6.00 Build 0)  -->
<svg version="1.1" id="Layer_1" xmlns="http://www.w3.org/2000/svg" xmlns:xlink="http://www.w3.org/1999/xlink" x="0px" y="0px"
	 viewBox="0 0 512 512" style="enable-background:new 0 0 512 512;" xml:space="preserve">
<circle style="fill:#FFEDB5;" cx="256" cy="256" r="256"/>
<path style="fill:#FEE187;" d="M511.486,239.971l-89.991-89.991c-3.799,2.738-8.387,4.806-12.067,6.034
	c-84.471,22.411-168.943,18.963-248.242,48.269c-31.03,12.067-25.859,56.889-39.65,86.195c-10.783,25.16-14.543,58.178-31.03,79.3
	L231.56,510.833C239.606,511.595,247.756,512,256,512c141.384,0,256-114.616,256-256C512,250.615,511.814,245.274,511.486,239.971z"
	/>
<polygon style="fill:#E03A00;" points="90.505,149.98 90.505,369.778 232.727,369.778 232.727,199.111 398.222,199.111 
	398.222,369.778 421.495,369.778 421.495,149.98 "/>
<polygon style="fill:#940030;" points="253.702,149.98 253.702,199.111 398.222,199.111 398.222,369.778 421.495,369.778 
	421.495,149.98 "/>
<g>
	<rect x="105.589" y="199.111" style="fill:#FF7F4F;" width="112.054" height="42.667"/>
	<rect x="105.589" y="256" style="fill:#FF7F4F;" width="112.054" height="42.667"/>
	<rect x="105.589" y="312.889" style="fill:#FF7F4F;" width="112.054" height="42.667"/>
</g>
<g>
	<circle style="fill:#E03A00;" cx="161.616" cy="220.436" r="7.758"/>
	<circle style="fill:#E03A00;" cx="161.616" cy="276.687" r="7.758"/>
	<circle style="fill:#E03A00;" cx="161.616" cy="333.576" r="7.758"/>
</g>
<g>
</g>
<g>
</g>
<g>
</g>
<g>
</g>
<g>
</g>
<g>
</g>
<g>
</g>
<g>
</g>
<g>
</g>
<g>
</g>
<g>
</g>
<g>
</g>
<g>
</g>
<g>
</g>
<g>
</g>
</svg>
