<?xml version="1.0" encoding="iso-8859-1"?>
<!-- Generator: Adobe Illustrator 19.0.0, SVG Export Plug-In . SVG Version: 6.00 Build 0)  -->
<svg version="1.1" id="Layer_1" xmlns="http://www.w3.org/2000/svg" xmlns:xlink="http://www.w3.org/1999/xlink" x="0px" y="0px"
	 viewBox="0 0 512.002 512.002" style="enable-background:new 0 0 512.002 512.002;" xml:space="preserve">
<circle style="fill:#E03A00;" cx="256.001" cy="256" r="256"/>
<path style="fill:#B52B00;" d="M511.266,236.48L379.222,104.286L132.335,407.254l104.474,104.033
	c6.335,0.469,12.734,0.715,19.191,0.715c141.384,0,256-114.616,256-256C512.001,249.432,511.751,242.924,511.266,236.48z"/>
<rect x="148.464" y="85.333" style="fill:#940030;" width="85.333" height="28.444"/>
<rect x="278.188" y="85.333" style="fill:#75002A;" width="85.333" height="28.444"/>
<g>
	<path style="fill:#FFFFFF;" d="M384.001,159.461V115.79c0-8.966-7.268-16.234-16.234-16.234H144.233
		c-8.966,0-16.234,7.268-16.234,16.234v43.672H384.001z"/>
	<path style="fill:#FFFFFF;" d="M128.001,162.909V396.21c0,8.966,7.268,16.234,16.234,16.234h223.534
		c8.966,0,16.234-7.268,16.234-16.234V162.909H128.001z"/>
</g>
<g>
	<path style="fill:#C9C9C9;" d="M384.001,115.79c0-8.966-7.268-16.234-16.234-16.234H254.563v59.906h129.436V115.79H384.001z"/>
	<path style="fill:#C9C9C9;" d="M254.565,162.909v249.535h113.204c8.966,0,16.234-7.268,16.234-16.234V162.909H254.565z"/>
</g>
<g>
	<circle style="fill:#940030;" cx="173.029" cy="131.879" r="14.222"/>
	<circle style="fill:#940030;" cx="228.349" cy="131.879" r="14.222"/>
	<circle style="fill:#940030;" cx="283.652" cy="131.879" r="14.222"/>
	<circle style="fill:#940030;" cx="338.955" cy="131.879" r="14.222"/>
	<rect x="142.223" y="199.111" style="fill:#940030;" width="227.556" height="170.667"/>
</g>
<rect x="254.57" y="199.111" style="fill:#75002A;" width="115.214" height="170.667"/>
<g>
</g>
<g>
</g>
<g>
</g>
<g>
</g>
<g>
</g>
<g>
</g>
<g>
</g>
<g>
</g>
<g>
</g>
<g>
</g>
<g>
</g>
<g>
</g>
<g>
</g>
<g>
</g>
<g>
</g>
</svg>
