<?xml version="1.0" encoding="utf-8"?>
<!-- Generator: Adobe Illustrator 18.1.1, SVG Export Plug-In . SVG Version: 6.00 Build 0)  -->
<!DOCTYPE svg PUBLIC "-//W3C//DTD SVG 1.1//EN" "http://www.w3.org/Graphics/SVG/1.1/DTD/svg11.dtd">
<svg version="1.1" id="_x31_0" xmlns="http://www.w3.org/2000/svg" xmlns:xlink="http://www.w3.org/1999/xlink" x="0px" y="0px"
	 viewBox="0 0 512 512" style="enable-background:new 0 0 512 512;" xml:space="preserve">
<style type="text/css">
	.st0{fill:#00FF00;}
</style>
<g>
	<path class="st0" d="M280.359,179.569l51.578-46.594c25.726-23.239,31.497-62.442,11.388-90.682
		c-23.791-33.411-71-37.808-100.566-11.099l-53.102,47.965c-0.064,0.06-0.148,0.084-0.232,0.076
		c-28.802-3.55-58.925,4.928-82.148,25.909C64.821,143.495,203.703,297.246,246.16,258.89
		c23.227-20.976,34.715-50.083,34.103-79.098C280.259,179.705,280.295,179.625,280.359,179.569z M215.383,243.742
		c-7.798,7.043-35.646-11.072-62.195-40.466c-26.552-29.39-41.757-58.929-33.959-65.971c7.798-7.047,35.646,11.067,62.195,40.462
		C207.976,207.161,223.181,236.699,215.383,243.742z"/>
	<path class="st0" d="M484.962,464.988l-27.016-1.395c-5.632-21.664-20.801-39.658-40.982-48.964
		c17.867-50.335,43.684-123.494,57.774-165.327c20.274-60.16,28.919-99.435,28.951-131.308
		c0.048-41.354-15.001-71.348-46.038-91.637c-11.707-7.658-24.71-12.878-38.236-15.853c-0.088-0.019-0.176-0.039-0.268-0.059
		c-17.73-3.854-36.381-3.742-54.44,0.891c-5.028,1.291-10.033,2.87-15.001,4.589c-1.151,0.367-2.306,0.715-3.45,1.087
		c0.02,0.024,0.04,0.043,0.064,0.063c-0.06,0.024-0.116,0.04-0.176,0.06c4.381,3.854,8.418,8.31,11.999,13.33
		c5.264,7.41,8.998,15.477,11.224,23.818c1.974-0.607,3.945-1.146,5.915-1.662c7.558-1.938,15.273-2.674,22.863-2.274
		c0.24,0.012,0.48,0.032,0.72,0.048c7.386,0.46,14.641,1.998,21.512,4.589c0.204,0.076,0.412,0.152,0.62,0.232
		c4.648,1.798,9.121,4.065,13.326,6.81c35.854,23.455,35.842,67.279,0.02,173.662c-14.817,43.975-42.729,122.938-60.531,173.069
		c-26.549,4.27-48.665,22.624-57.962,47.498l-27.017-1.395c-15.656-0.807-29.13,11.344-29.938,27.001l-0.476,9.185l-0.004,0.024
		h0.004l-0.012,0.164l253.071,13.07l0.483-9.373C512.77,479.27,500.622,465.795,484.962,464.988z"/>
	<path class="st0" d="M120.912,262.9c0.156-3.054-0.879-5.98-2.922-8.242c-2.039-2.262-4.845-3.593-7.898-3.753
		c-3.05-0.156-5.98,0.879-8.242,2.918L52.142,298.65c-4.677,4.221-5.053,11.46-0.831,16.14c2.042,2.262,4.844,3.594,7.898,3.754
		c3.054,0.156,5.98-0.879,8.242-2.922l49.703-44.823C119.421,268.755,120.752,265.95,120.912,262.9z"/>
	<path class="st0" d="M84.067,230.032c1.203-2.81,1.238-5.916,0.108-8.746c-1.651-4.121-5.588-6.931-10.033-7.159
		c-1.659-0.088-3.282,0.184-4.825,0.8l-62.134,24.89c-2.83,1.131-5.048,3.302-6.251,6.111c-1.203,2.81-1.243,5.916-0.108,8.742
		c1.65,4.126,5.588,6.935,10.033,7.163c1.658,0.088,3.282-0.184,4.824-0.8l62.134-24.89
		C80.646,235.012,82.864,232.842,84.067,230.032z"/>
	<path class="st0" d="M147.704,291.738c-1.47-0.775-3.054-1.21-4.712-1.294c-4.445-0.232-8.654,2.162-10.716,6.091l-31.158,59.237
		c-1.419,2.698-1.698,5.792-0.791,8.71c0.907,2.922,2.89,5.308,5.588,6.727c1.47,0.771,3.058,1.207,4.712,1.295h0.004
		c4.441,0.227,8.65-2.162,10.717-6.092l31.153-59.237c1.419-2.698,1.699-5.791,0.791-8.71
		C152.389,295.548,150.402,293.158,147.704,291.738z"/>
</g>
</svg>
