<?xml version="1.0" encoding="utf-8"?>
<!-- Generator: Adobe Illustrator 19.1.1, SVG Export Plug-In . SVG Version: 6.00 Build 0)  -->
<svg version="1.1" id="_x31_0" xmlns="http://www.w3.org/2000/svg" xmlns:xlink="http://www.w3.org/1999/xlink" x="0px" y="0px"
	 viewBox="0 0 512 512" style="enable-background:new 0 0 512 512;" xml:space="preserve">
<style type="text/css">
	.st0{fill:#000000;}
</style>
<g>
	<polygon class="st0" points="188.793,357.141 188.793,383.562 200.05,383.562 200.05,357.383 200.05,357.301 200.05,357.301 
		200.05,357.141 	"/>
	<polygon class="st0" points="224.683,383.562 224.683,351.926 213.422,351.926 213.422,383.309 213.422,383.406 213.422,383.406 
		213.422,383.562 	"/>
	<polygon class="st0" points="249.313,383.562 249.313,346.711 238.246,346.711 238.215,346.711 238.215,346.711 238.054,346.711 
		238.054,383.293 238.05,383.406 238.054,383.406 238.054,383.562 	"/>
	<polygon class="st0" points="273.946,383.562 273.946,341.492 262.683,341.492 262.683,383.149 262.683,383.406 262.683,383.406 
		262.683,383.562 	"/>
	<rect x="287.313" y="336.278" class="st0" width="11.262" height="47.285"/>
	<polygon class="st0" points="312.141,331.062 312.106,331.062 312.106,331.062 311.946,331.062 311.946,383.562 323.203,383.562 
		323.203,331.539 323.207,331.222 323.203,331.222 323.203,331.062 	"/>
	<path class="st0" d="M255.996,0C114.84,0,0,114.84,0,256s114.84,256,255.996,256C397.156,512,512,397.16,512,256
		S397.156,0,255.996,0z M255.996,41.438c118.5,0,214.566,96.062,214.566,214.562s-96.066,214.562-214.566,214.562
		S41.434,374.5,41.434,256S137.496,41.438,255.996,41.438z"/>
	<path class="st0" d="M379.774,330.422c-16.215,0-29.461,13.161-29.461,29.375c0,16.215,13.246,29.457,29.461,29.457
		c16.214,0,29.371-13.242,29.371-29.457C409.145,343.582,395.988,330.422,379.774,330.422z M369.867,374.793l24.848-24.843
		c1.953,2.801,2.972,6.195,2.972,9.847c0,9.93-7.98,17.996-17.914,17.996c-3.61,0-6.801-1.07-9.622-2.824
		C370.058,374.906,369.961,374.859,369.867,374.793z"/>
	<path class="st0" d="M132.309,330.422c-16.215,0-29.458,13.161-29.458,29.375c0,16.215,13.242,29.457,29.458,29.457
		c16.218,0,29.374-13.242,29.374-29.457C161.683,343.582,148.527,330.422,132.309,330.422z M122.402,374.797l24.848-24.847
		c1.957,2.801,2.972,6.195,2.972,9.847c0,9.93-7.98,17.996-17.914,17.996c-3.61,0-6.805-1.07-9.622-2.824
		C122.594,374.906,122.496,374.859,122.402,374.797z"/>
	<path class="st0" d="M103.855,288.461v0.16h64.016V167.535v-0.371l0,0v-0.16h-64.016V288.09V288.461L103.855,288.461z
		 M126.117,251.652l11.36-29.258l4.129-10.465h-0.062l0.062-0.164h-12.622v7.519h-8.324v-15.37h30.406v7.851l-15.504,39.942h-7.043
		L126.117,251.652z"/>
	<path class="st0" d="M181.683,288.461v0.16h64.086V167.004h-64.086v120.714V288.461L181.683,288.461z M213.625,244.054
		c1.746,0,3.133-0.511,4.164-1.542c0.758-0.762,1.262-1.754,1.508-2.989c0.246-1.226,0.371-2.606,0.371-4.125
		c0-2.778-0.438-4.902-1.313-6.379c-0.871-1.476-2.382-2.214-4.527-2.214c-1.793,0-3.121,0.414-3.996,1.242
		c-0.871,0.828-1.465,1.71-1.778,2.648h-7.988v-26.98h27.25v7.851h-19.329v5.95l-0.117,4.206c0.031-0.031,0.086-0.054,0.117-0.086
		v0.199c0.626-0.625,1.578-1.187,2.852-1.676c1.277-0.492,2.718-0.738,4.328-0.738c2.015,0,3.762,0.29,5.238,0.871
		c1.477,0.582,2.707,1.367,3.691,2.348c1.879,1.878,3.066,3.906,3.558,6.074c0.489,2.171,0.738,4.398,0.738,6.683
		c0,2.684-0.27,5.023-0.805,7.012c-0.539,1.992-1.679,3.859-3.426,5.606c-1.074,1.074-2.473,1.992-4.195,2.754
		c-1.722,0.758-3.836,1.137-6.344,1.137c-2.504,0-4.652-0.379-6.442-1.137c-1.793-0.762-3.202-1.656-4.23-2.684
		c-1.472-1.48-2.465-3.066-2.953-4.769c-0.496-1.7-0.805-3.422-0.942-5.168h8.73c0.223,1.882,0.794,3.335,1.707,4.363
		C210.414,243.543,211.789,244.054,213.625,244.054z"/>
	<path class="st0" d="M323.602,167.004h-64.019v121.617h64.019V167.004z M303.527,244.93L303.527,244.93h-0.156v6.778h-8.39v-6.778
		H275.45v-8.258l16.374-32.758h6.637l2.863,0.066l-11.222,22.449l-5.121,10.082h0.078l-0.078,0.16h9.808h0.031l0,0h0.161v-8.93h8.39
		v8.714v0.055l0,0v0.16h4.363v8.258h-4.191H303.527z"/>
	<path class="st0" d="M337.414,288.461v0.16h64.015V167.004h-64.015V288.09l-0.004,0.371H337.414z M383.621,186.539
		c-0.226,0.922-0.55,1.805-0.976,2.656c-0.426,0.852-0.962,1.688-1.61,2.516c-0.649,0.828-1.375,1.71-2.18,2.652l-8.023,9.313
		l-5.336,6.035h0.137l-0.137,0.16h18.457v7.851H354.89v-7.851l17.856-20.742c0.894-1.031,1.531-1.973,1.914-2.824
		c0.379-0.848,0.57-1.832,0.57-2.954c0-1.789-0.496-3.23-1.477-4.328c-0.988-1.094-2.418-1.644-4.297-1.644
		c-0.718,0-1.422,0.102-2.113,0.301c-0.695,0.203-1.325,0.538-1.879,1.007c-0.562,0.473-1.012,1.098-1.344,1.879
		c-0.156,0.359-0.148,0.902-0.234,1.34c-0.011,0.07-0.023,0.156-0.038,0.226c-0.07,0.457-0.231,0.817-0.231,1.355h-8.726
		c0-2.191,0.367-4.148,1.106-5.874c0.738-1.723,1.77-3.188,3.09-4.395c1.321-1.206,2.864-2.125,4.633-2.754
		c1.766-0.625,3.676-0.942,5.738-0.942c2.102,0,4.051,0.328,5.84,0.977c1.789,0.649,3.32,1.566,4.598,2.75
		c1.274,1.187,2.27,2.64,2.989,4.363c0.714,1.726,1.07,3.66,1.07,5.808C383.953,184.586,383.844,185.625,383.621,186.539z
		 M375.942,288.558h-8.726v-38.394l-5.926,5.149l-3.808,3.175v-9.266l9.734-8.457h8.726V288.558z"/>
	<polygon class="st0" points="168.246,407.554 168.246,407.715 343.75,407.715 343.75,398.73 168.246,398.73 168.246,407.5 
		168.246,407.554 	"/>
</g>
</svg>
