<?xml version="1.0" encoding="utf-8"?>
<!-- Generator: Adobe Illustrator 19.1.1, SVG Export Plug-In . SVG Version: 6.00 Build 0)  -->
<svg version="1.1" id="_x31_0" xmlns="http://www.w3.org/2000/svg" xmlns:xlink="http://www.w3.org/1999/xlink" x="0px" y="0px"
	 viewBox="0 0 512 512" style="enable-background:new 0 0 512 512;" xml:space="preserve">
<style type="text/css">
	.st0{fill:#000000;}
</style>
<g>
	<path class="st0" d="M244.436,471.898h33.266c12.297,0,22.828-0.117,33.566-0.683l24.691,35.246L368.436,512l33.648-9.938
		l7.985-2.32l-0.02-0.035l0.161-0.047l-24.223-41.774l-0.613-1.07c0.398-0.215,0.781-0.426,1.144-0.637
		c2.442-1.332,4.79-2.856,6.973-4.516c16.078-12.254,19.711-29.098,22.926-43.992c0.223-1.078,0.469-2.172,0.711-3.262
		c9.058-11.09,13.02-25.321,11.164-40.203c-2.238-18.402-13.098-35.5-28.324-44.614c-1.016-0.613-2.133-1.226-3.336-1.828v-21.301
		c0-10.809-7.183-18.879-21.922-24.598v-27.906l31.91-42.289l10.043-73.637l-41.953-19.238V95.39
		c10.242-3.258,21.922-9.266,21.922-22.836V33.89c0-20.023-25.066-25.156-50.738-28.699C321.772,1.844,289.846,0,255.994,0
		c-33.832,0-65.746,1.844-89.863,5.191c-25.676,3.543-50.742,8.676-50.742,28.699v38.664c0,13.559,11.68,19.57,21.922,22.836v13.418
		l-41.977,19.222l10.058,73.652l31.918,42.298v27.886c-14.742,5.718-21.922,13.789-21.922,24.598v21.297
		c-1.234,0.61-2.343,1.215-3.351,1.821c-15.203,9.105-26.062,26.199-28.34,44.621c-1.828,14.926,2.141,29.156,11.195,40.211
		c0.246,1.09,0.489,2.191,0.719,3.293c3.203,14.859,6.839,31.703,22.918,43.957c2.184,1.66,4.527,3.184,6.871,4.457
		c0.394,0.23,0.805,0.458,1.238,0.692L106.6,491.367l-4.766,8.141l0.039,0.011l-0.086,0.141L143.564,512l32.473-5.539l24.695-35.25
		C215.287,471.977,229.467,471.938,244.436,471.898z M347.432,488.34l-11.074-15.805L331.17,465
		c1.527-0.172,3.043-0.332,4.594-0.527c1.531-0.18,3.07-0.375,4.618-0.594l9.633,15.621l6.258,10.348L347.432,488.34z
		 M367.236,491.718l-2.832-0.48l-3.625-5.883l-13.219-22.59c1.883-0.297,3.766-0.582,5.711-0.946c0.062,0,0.152,0,0.246-0.058
		c2.313-0.394,4.688-0.824,7.094-1.309c0.273-0.062,0.578-0.121,0.851-0.183h0.031c0.91-0.184,1.778-0.39,2.649-0.598l13.258,22.867
		l3.023,5.285L367.236,491.718z M370.139,128.477l24.934,11.43l-7.363,53.969l-9.782,12.969l-7.789,10.109V128.477z M144.315,52.859
		V39.187c11.418-4.171,49.691-10.262,111.679-10.262c62.02,0,100.293,6.09,111.711,10.262v13.672v14.398
		c-2.223,0.825-5.481,1.707-9.742,2.618c-3.41,0.734-7.461,1.465-12.18,2.164c-19.426,2.922-49.629,5.48-89.789,5.48
		s-70.363-2.558-89.758-5.48c-4.688-0.699-8.77-1.43-12.18-2.191c-4.262-0.883-7.519-1.766-9.742-2.59V52.859z M345.783,96.672
		v172.602v12.394v12.359v12.211c-1.644,0.668-3.988,1.43-6.941,2.191c-2.801,0.699-6.234,1.426-10.192,2.153
		c-0.347,0.054-0.625,0.113-0.984,0.164v-3.594v-15.984v-12.242v-12.27V98.774c6.242-0.578,12.117-1.282,17.598-2.043
		C345.448,96.699,345.6,96.672,345.783,96.672z M210.475,229.906c9.867,7.125,23.293,10.902,40.953,11.449v21.465V275v12.18v16.621
		v12.09c-24.023-0.152-43.48-1.707-57.942-3.714v-5.879v-16.164V277.89v-12.238V197.39
		C194.552,210.633,200.49,222.66,210.475,229.906z M193.486,187.883V99.562c17.566,1.398,37.329,2.191,57.942,2.286v42.957
		c-14.707,0.278-44.574,2.926-54.195,27.586c-1.512,3.86-2.418,7.805-3.047,11.75C193.948,185.386,193.67,186.621,193.486,187.883z
		 M222.998,219.836c-0.05-0.031-0.098-0.062-0.152-0.09c-1.196-0.657-2.352-1.375-3.45-2.168
		c-10.442-7.586-13.762-24.906-7.977-39.676c5.297-13.578,21.985-17.355,40.008-17.84c1.523-0.031,3.043-0.062,4.566-0.062
		s3.043,0.031,4.566,0.062c18.023,0.485,34.742,4.262,40.039,17.84c5.754,14.77,2.465,32.09-7.977,39.676
		c-1.094,0.789-2.246,1.504-3.434,2.156c-0.062,0.035-0.121,0.07-0.179,0.106c-8.622,4.683-19.438,6-28.45,6.293
		c-1.582,0.027-3.106,0.058-4.566,0.058c-1.461,0-2.984-0.031-4.566-0.058C242.44,225.84,231.619,224.523,222.998,219.836z
		 M260.56,303.801V287.18V275v-12.18v-21.465c17.66-0.546,31.086-4.324,40.985-11.449c9.984-7.246,15.922-19.274,16.988-32.516
		v68.262v12.238v12.242v16.164v5.879c-14.375,1.996-33.691,3.539-57.543,3.707c-0.148,0-0.281,0.003-0.43,0.003V303.801z
		 M318.377,187.715c-0.493-5.122-1.622-10.301-3.59-15.325c-9.621-24.66-39.488-27.308-54.226-27.586v-42.957
		c20.614-0.094,40.402-0.887,57.973-2.286v44.508L318.377,187.715z M184.353,98.774v167.851v12.301v12.242v15.984v3.219
		l-0.019,0.398c-4.406-0.758-8.118-1.582-11.156-2.34c-2.954-0.762-5.266-1.523-6.942-2.191v-12.211v-12.359v-12.394V96.672
		c0.183,0,0.336,0.027,0.515,0.058C172.232,97.492,178.112,98.195,184.353,98.774z M144.315,338.207v-12.512v-3.453l0.125-2.668
		c1.238,1.882,2.886,3.542,4.898,5.023c5.48,4.019,13.55,6.637,22.531,8.586c3.226,0.7,6.606,1.34,10.015,1.918
		c19.914,3.32,46.219,5.176,74.11,5.176s54.226-1.856,74.11-5.176c3.41-0.578,6.789-1.218,10.015-1.918
		c8.981-1.949,17.051-4.566,22.562-8.586c1.59-1.152,2.864-2.465,3.962-3.859c0.351-0.39,0.73-0.774,1.062-1.172l0.031,6.129v12.512
		v8.738c-1.828,5.906-28.164,19.363-80.566,23.351c-3.133-14.309-15.922-25.058-31.176-25.058c-15.222,0-28.012,10.75-31.148,25.058
		c-52.43-3.988-78.766-17.414-80.531-23.078V338.207z M266.592,377.117c0,2.406-0.824,4.63-2.195,6.426
		c-1.918,2.527-4.961,4.14-8.402,4.14c-3.41,0-6.453-1.613-8.371-4.14c-1.371-1.797-2.195-4.02-2.195-6.426
		c0-2.129,0.641-4.109,1.707-5.781c1.918-2.867,5.176-4.782,8.859-4.782c3.715,0,6.973,1.914,8.89,4.782
		C265.951,373.008,266.592,374.988,266.592,377.117z M124.311,193.886l-7.367-53.98l24.934-11.45v49.118l-0.126,39.438
		L124.311,193.886z M144.764,491.718l-10.836-3.199l-2.371-0.738l16.301-28.118c0.871,0.203,1.734,0.41,2.637,0.606
		c0.031,0,0.031,0,0.062,0c0.274,0.062,0.578,0.121,0.852,0.183c2.406,0.485,4.781,0.946,7.094,1.34
		c0.09,0.027,0.152,0.027,0.246,0.027c1.605,0.301,3.148,0.535,4.702,0.782c0.535,0.114,1.055,0.183,1.602,0.32l-17.457,28.317
		L144.764,491.718z M164.568,488.34l-5.469,0.934l-3.438,0.484l15.953-25.874c1.547,0.222,3.078,0.426,4.61,0.617
		c1.45,0.183,2.863,0.324,4.29,0.481l0.351,0.094L164.568,488.34z M172.052,439.351c-1.726-0.258-3.507-0.57-5.277-0.87
		c-0.871-0.215-1.75-0.41-2.578-0.703H164.1l0.098-0.161h-2.469c-1.824-0.335-3.652-0.699-5.539-1.066
		c-2.648-0.515-5.023-1.098-7.187-1.734c-4.598-1.34-8.219-2.926-11.114-4.813c-9.133-5.969-11.082-14.887-14.004-28.406
		c-0.578-2.617-1.156-5.297-1.797-8.008l-0.824-3.347l-2.402-2.438c-6.578-6.547-7.125-14.523-6.457-20.062
		c0.648-5.29,2.718-10.391,5.656-14.703c0.668-0.922,1.336-1.848,2.114-2.695c0.781,6.218,4,11.609,8.894,16.336
		c0.141,0.14,0.297,0.273,0.442,0.41c1.48,1.387,3.094,2.715,4.863,3.981c0.234,0.164,0.469,0.332,0.707,0.496
		c1.797,1.246,3.714,2.43,5.762,3.562c0.175,0.094,0.343,0.191,0.519,0.286c21.988,11.91,57.258,17.57,88.207,19.546
		c5.75,8.465,15.465,14.035,26.426,14.035c10.992,0,20.703-5.57,26.457-14.035c30.867-1.969,66.008-7.602,88.008-19.43
		c0.398-0.214,0.778-0.434,1.168-0.652c1.726-0.965,3.363-1.973,4.906-3.024c0.566-0.382,1.114-0.77,1.656-1.164
		c1.293-0.949,2.489-1.938,3.622-2.957c0.586-0.519,1.171-1.039,1.714-1.578c0.954-0.961,1.79-1.961,2.594-2.98
		c0.528-0.657,1.078-1.297,1.539-1.981c0.618-0.922,1.09-1.898,1.582-2.863c0.441-0.863,0.945-1.699,1.285-2.602
		c0.156-0.418,0.207-0.867,0.34-1.293c0.434-1.352,0.886-2.695,1.082-4.141c4.038,4.77,6.847,11,7.636,17.446
		c0.699,5.539,0.122,13.515-6.426,20.062l-2.438,2.438l-0.789,3.347c-0.672,2.711-1.25,5.391-1.797,8.008
		c-2.922,13.519-4.871,22.438-14.004,28.406c-2.894,1.886-6.488,3.473-11.117,4.813c-2.161,0.636-4.535,1.218-7.184,1.734
		c-1.886,0.367-3.746,0.731-5.543,1.066h-2.496l0.246,0.395c-2.742,0.488-5.422,0.945-8.07,1.339
		c-7.914,1.188-15.375,2.012-22.715,2.528c-15.922,1.187-31.297,1.156-49.598,1.098l-11.66-0.031l-11.629,0.031
		c-18.301,0.058-33.707,0.09-49.633-1.098C187.396,441.363,179.936,440.539,172.052,439.351z"/>
	<path class="st0" d="M255.994,211.73c1.582,0,3.106-0.031,4.566-0.09c10.992-0.398,18.726-2.286,23.566-5.817
		c4.902-3.531,6.301-14.129,2.985-22.652c-2.012-5.118-11.356-8.133-26.551-8.618c-1.461-0.062-2.984-0.094-4.566-0.094
		c-1.582,0-3.106,0.031-4.566,0.094c-15.195,0.485-24.539,3.5-26.519,8.618c-3.352,8.523-1.95,19.121,2.984,22.652
		c4.809,3.531,12.543,5.418,23.535,5.817C252.888,211.699,254.412,211.73,255.994,211.73z"/>
</g>
</svg>
