<?xml version="1.0" encoding="utf-8"?>
<!-- Generator: Adobe Illustrator 19.1.1, SVG Export Plug-In . SVG Version: 6.00 Build 0)  -->
<svg version="1.1" id="_x31_0" xmlns="http://www.w3.org/2000/svg" xmlns:xlink="http://www.w3.org/1999/xlink" x="0px" y="0px"
	 viewBox="0 0 512 512" style="enable-background:new 0 0 512 512;" xml:space="preserve">
<style type="text/css">
	.st0{fill:#000000;}
</style>
<g>
	<path class="st0" d="M203.554,87.384c-0.114-0.192-0.226-0.383-0.379-0.61c-0.496-0.727-1.141-1.594-2.019-2.551
		c-0.871-0.95-2.012-2.168-3.422-3.575c-1.41-1.406-2.626-2.55-3.575-3.426c-0.953-0.871-1.828-1.52-2.55-2.016
		c-0.723-0.496-1.333-0.801-1.903-0.989c-0.61-0.156-1.18-0.266-1.789-0.266c-0.95,0.035-1.903,0.227-2.891,0.606
		c-0.989,0.383-1.938,1.031-2.817,1.906c-0.875,0.871-1.524,1.825-1.902,2.813c-0.379,0.989-0.57,1.942-0.57,2.856
		c0,0.61,0.074,1.219,0.27,1.79c0.187,0.566,0.492,1.18,0.988,1.902c0.458,0.758,1.137,1.598,1.977,2.586
		c0.875,0.95,2.016,2.168,3.426,3.574s2.626,2.555,3.574,3.426c0.993,0.84,1.825,1.524,2.586,1.981
		c0.23,0.148,0.422,0.266,0.61,0.379c0.457,0.301,0.914,0.531,1.336,0.648c0.57,0.188,1.176,0.266,1.786,0.266
		c0.91,0,1.867-0.195,2.856-0.574c0.949-0.418,1.898-1.062,2.774-1.938c0.879-0.875,1.523-1.828,1.946-2.782
		c0.379-0.984,0.57-1.938,0.61-2.887c0-0.609-0.114-1.179-0.27-1.789C204.085,88.298,203.863,87.841,203.554,87.384z"/>
	<path class="st0" d="M435.036,197.253c-4.493-4.497-12.064-9.966-23.44-12.06L264.987,38.647
		c-1.973-9.415-6.278-17.718-12.982-24.425c-16.881-16.882-43.681-18.319-73.102-6.517c-0.133,0.05-0.262,0.106-0.391,0.16
		c-20.542,8.318-42.337,23.011-62.961,43.638C65.223,101.83,49.535,159.229,78.264,187.959c6.704,6.707,14.951,11.013,24.426,12.982
		L249.235,347.55c2.09,11.384,7.567,18.947,12.06,23.44c4.059,4.063,10.521,8.861,19.87,11.318c4.31-8.67,7.138-15.811,9.107-24.296
		c0.098-0.348,0.164-0.672,0.246-0.985l0.039-0.094c0,0-0.008,0-0.015-0.004c0.015-0.047,0.023-0.106,0.038-0.153
		c-4.184-0.613-7.63-2.152-10.212-4.797c-0.406-0.387-0.726-0.836-1.078-1.262c-0.469-0.566-0.894-1.176-1.289-1.832
		c-0.286-0.481-0.594-0.946-0.832-1.461c-3.2-6.888-2.403-16.917,1.906-28.547c6.582-18.268,21.534-40.602,42.388-61.457
		c20.795-20.858,43.189-35.806,61.461-42.392c11.63-4.306,21.655-5.106,28.546-1.906c1.723,0.801,3.2,1.848,4.552,3.199
		c3.324,3.262,4.985,8.002,5.106,13.783c0.434,19.749-17.1,51.741-46.201,80.776c-10.682,10.739-21.773,19.753-32.52,26.98
		c-1.473,0.969-2.95,2.024-4.418,2.914c0.011,0.012,0.023,0.027,0.039,0.039c-0.047,0.027-0.09,0.062-0.137,0.09
		c5.414,4.122,9.353,10.091,11.013,17.108c0.371,1.734,0.887,3.402,1.406,5.066c0.122,0.469,0.242,0.985,0.356,1.442
		c0.011-0.011,0.023-0.019,0.038-0.027c0.016,0.051,0.024,0.11,0.043,0.16c14.642-9.044,29.406-20.979,43.189-34.762
		c20.487-20.425,36.79-43.19,45.772-64.106C456.571,227.089,444.018,206.234,435.036,197.253z M212.61,87.43
		c0.054,0.653,0.078,1.325,0.019,2.032c-0.121,2.094-0.55,4.184-1.414,6.09c-0.859,1.969-2.274,3.875-4.18,5.786
		c-1.91,1.844-3.758,3.258-5.723,4.118c-1.969,0.864-3.938,1.294-6.032,1.418c-1.598,0.121-3.016-0.062-4.242-0.43
		c-1.231-0.371-2.462-0.922-3.63-1.661c-0.184-0.125-0.492-0.308-0.738-0.496c-0.922-0.614-1.848-1.352-2.77-2.211
		c-1.169-1.11-2.462-2.34-3.876-3.754c-1.414-1.418-2.645-2.707-3.692-3.875c-1.106-1.172-1.969-2.34-2.828-3.509
		c-0.676-1.168-1.294-2.398-1.598-3.629c-0.371-1.231-0.496-2.645-0.434-4.247c0.126-2.09,0.555-4.058,1.477-5.966
		c0.86-1.969,2.215-3.875,4.122-5.782c1.844-1.848,3.817-3.262,5.724-4.122c1.969-0.863,4-1.414,6.09-1.477
		c1.598-0.125,2.95,0.062,4.184,0.367c1.226,0.434,2.461,0.922,3.63,1.727c1.168,0.797,2.278,1.656,3.504,2.766
		c1.172,1.043,2.462,2.336,3.879,3.75c1.352,1.418,2.642,2.649,3.75,3.879c0.802,0.922,1.539,1.844,2.215,2.708
		c0.188,0.246,0.367,0.55,0.493,0.738c0.797,1.168,1.289,2.394,1.718,3.629c0.145,0.566,0.25,1.18,0.321,1.817
		C212.59,87.212,212.602,87.321,212.61,87.43z M213.547,127.569c1.207-0.758,2.434-1.481,3.688-2.165
		c1.086-0.59,2.164-1.207,3.27-1.734c0.309-0.125,0.618-0.309,0.985-0.43c1.207-0.555,2.442-1.032,3.672-1.512
		c0.946-0.371,1.899-0.719,2.856-1.043c2.703-0.922,5.446-1.68,8.232-2.242c0.527-0.11,1.058-0.211,1.586-0.305
		c1.559-0.278,3.122-0.52,4.696-0.68v-0.062c20.241-2.215,41.282,4.43,56.785,19.932c27.007,27.011,27.007,70.877,0,97.942
		c-27.074,27.011-70.935,27.07-98.005,0c-15.506-15.502-22.089-36.544-19.874-56.722c0.801-7.258,2.77-14.334,5.848-21.1
		c0.122-0.371,0.246-0.618,0.43-0.985c0.527-1.11,1.141-2.187,1.734-3.274c0.683-1.258,1.41-2.489,2.172-3.7
		c1.336-2.121,2.794-4.184,4.376-6.176c0.867-1.094,1.766-2.157,2.699-3.2c0.855-0.957,1.695-1.926,2.614-2.844
		c0.922-0.922,1.894-1.762,2.856-2.622c1.035-0.93,2.094-1.824,3.176-2.684C209.347,130.374,211.418,128.912,213.547,127.569z
		 M123.794,125.084l21.1-21.101l21.042,21.042l8.427,8.427l-6.337,6.337l-8.426-8.431l-15.936-15.869L128.9,130.252L123.794,125.084
		z M181.93,125.885l-29.468-29.469l6.336-6.399l21.042,21.042l8.426,8.49L181.93,125.885z"/>
	<path class="st0" d="M320.408,330.798c2.891-0.61,5.634-2.055,7.915-4.341c2.246-2.246,3.731-5.02,4.337-7.915
		c1.222-5.172-0.226-10.806-4.223-14.802c-1.329-1.328-2.852-2.398-4.489-3.118c-2.09-0.965-4.348-1.286-6.614-1.301
		c-0.046-0.004-0.086-0.016-0.133-0.016c-0.07,0-0.137,0.02-0.211,0.02c-2.981,0.039-5.887,0.882-8.493,2.574
		c-0.188,0.121-0.356,0.262-0.539,0.39c-0.738,0.524-1.531,0.938-2.196,1.602c-4.91,4.911-6.012,12.256-3.238,18.151
		c0.688,1.672,1.754,3.199,3.082,4.528C309.603,330.567,315.197,331.977,320.408,330.798z"/>
	<path class="st0" d="M205.867,184.576c3.134,11.814,12.24,20.303,25.53,23.932c4.551,1.231,8.49,2.278,11.994,3.2
		c15.077,3.938,21.288,5.54,30.516,11.38c3.875,2.403,8.739,1.91,11.939-1.289c3.195-3.2,3.75-8.122,1.289-11.998
		c-5.782-9.166-7.442-15.381-11.38-30.453c-0.922-3.509-1.973-7.509-3.2-11.998c-3.57-13.35-12.122-22.394-23.933-25.531
		c-11.751-3.141-25.35,0.493-33.778,8.982C206.355,159.291,202.726,172.828,205.867,184.576z M224.373,184.439
		c-0.859-1.352-1.59-2.758-1.958-4.353c-1.539-5.844,0.305-12.919,4.548-17.166c4.246-4.247,11.322-6.091,17.166-4.552
		c4.333,1.153,7.697,4.067,9.966,8.506c0.004,0.007,0.008,0.011,0.008,0.011c0.254,0.493,0.406,1.11,0.629,1.634
		c0.485,1.187,0.969,2.367,1.325,3.75c-10.889-0.829-22.429,3.223-31.418,11.958C224.553,184.306,224.455,184.361,224.373,184.439z
		 M240.93,194.174c0.922-2.891,4.246-4.493,7.384-3.508c3.199,0.988,4.985,4.184,4.122,7.075c-0.922,2.954-4.185,4.493-7.384,3.508
		C241.851,200.265,240.007,197.124,240.93,194.174z"/>
	<path class="st0" d="M345.396,411.78c-7.567-14.396-12.92-24.608-16.795-35.622c-0.614-1.738-1.18-3.512-1.723-5.313
		c-0.164-0.551-0.328-1.11-0.484-1.665c-0.527-1.828-1.031-3.684-1.485-5.634c-0.554-2.523-2.707-4.246-5.352-4.246
		c-2.582,0-4.735,1.723-5.352,4.246c-1.602,6.888-3.63,12.978-6.216,19.132c-3.504,8.735-8.181,17.596-14.271,29.101
		c-4.063,7.814-8.736,16.612-14.15,27.5c-9.169,18.213-9.29,36.176-0.492,50.448c8.368,13.537,24.3,22.272,40.482,22.272
		c16.24,0,32.176-8.735,40.544-22.272c8.798-14.272,8.677-32.235-0.492-50.448C354.194,428.392,349.518,419.594,345.396,411.78z
		 M297.902,442.91c2.215,0,4.305,1.906,3.875,4.492c-0.863,5.227-1.293,10.705-1.293,16.366c0,7.998,0.863,15.565,2.461,22.456
		c0.618,2.703-1.598,4.798-3.875,4.798c-0.922,0-1.848-0.371-2.645-1.172c-6.09-5.966-9.907-14.334-9.907-23.499
		c0-8.49,3.203-16.244,8.43-22.085C295.807,443.343,296.855,442.91,297.902,442.91z"/>
</g>
</svg>
