<?xml version="1.0" ?><svg height="289px" version="1.1" viewBox="0 0 268 289" width="268px" xmlns="http://www.w3.org/2000/svg" xmlns:xlink="http://www.w3.org/1999/xlink"><title/><desc/><defs><path d="M173.333334,25.3802623 C223.825003,43.401838 260,92.0286182 260,149.18753 C260,221.689921 201.797017,280.464721 130,280.464721 C58.2029825,280.464721 0,221.689921 0,149.18753 C0,92.0286182 36.1749969,43.401838 86.666666,25.3802623 L86.6666667,63.414683 C55.7988043,79.3492113 34.6666667,111.776288 34.6666667,149.18753 C34.6666667,202.35595 77.3488539,245.45747 130,245.45747 C182.651146,245.45747 225.333333,202.35595 225.333333,149.18753 C225.333333,111.776288 204.201196,79.3492113 173.333343,63.414688 L173.333333,25.3802568 L173.333334,25.3802623 Z" id="path-1"/><filter filterUnits="objectBoundingBox" height="200%" id="filter-2" width="200%" x="-50%" y="-50%"><feOffset dx="0" dy="4" in="SourceAlpha" result="shadowOffsetOuter1"/><feGaussianBlur in="shadowOffsetOuter1" result="shadowBlurOuter1" stdDeviation="2"/><feColorMatrix in="shadowBlurOuter1" type="matrix" values="0 0 0 0 0   0 0 0 0 0   0 0 0 0 0  0 0 0 0.5 0"/></filter><path d="M123.006168,7.10542736e-15 L137.993832,7.10542736e-15 C143.520086,7.10542736e-15 148,4.48683719 148,10.0004348 L148,112.999565 C148,118.522653 143.531675,123 137.993832,123 L123.006168,123 C117.479914,123 113,118.513163 113,112.999565 L113,10.0004348 C113,4.47734715 117.468325,7.10542736e-15 123.006168,7.10542736e-15 Z" id="path-3"/><filter filterUnits="objectBoundingBox" height="200%" id="filter-4" width="200%" x="-50%" y="-50%"><feOffset dx="0" dy="4" in="SourceAlpha" result="shadowOffsetOuter1"/><feGaussianBlur in="shadowOffsetOuter1" result="shadowBlurOuter1" stdDeviation="2"/><feColorMatrix in="shadowBlurOuter1" type="matrix" values="0 0 0 0 0   0 0 0 0 0   0 0 0 0 0  0 0 0 0.5 0"/></filter></defs><g fill="none" fill-rule="evenodd" id="Page-1" stroke="none" stroke-width="1"><g id="on_off" transform="translate(4.000000, 0.000000)"><g id="Combined-Shape"><use fill="black" fill-opacity="1" filter="url(#filter-2)" xlink:href="#path-1"/><use fill="#697F9B" fill-rule="evenodd" xlink:href="#path-1"/></g><g id="Combined-Shape"><use fill="black" fill-opacity="1" filter="url(#filter-4)" xlink:href="#path-3"/><use fill="#67ADD5" fill-rule="evenodd" xlink:href="#path-3"/></g></g></g></svg>