<?xml version="1.0" encoding="utf-8"?>
<!-- Generator: Adobe Illustrator 18.1.1, SVG Export Plug-In . SVG Version: 6.00 Build 0)  -->
<!DOCTYPE svg PUBLIC "-//W3C//DTD SVG 1.1//EN" "http://www.w3.org/Graphics/SVG/1.1/DTD/svg11.dtd">
<svg version="1.1" id="_x31_0" xmlns="http://www.w3.org/2000/svg" xmlns:xlink="http://www.w3.org/1999/xlink" x="0px" y="0px"
	 viewBox="0 0 512 512" style="enable-background:new 0 0 512 512;" xml:space="preserve">
<style type="text/css">
	.st0{fill:#000000;}
</style>
<g>
	<path class="st0" d="M0,7.807v368.742v1.125l0,0v0.16h512V7.807H0z M436.481,302.311H75.519V83.326h360.962v218.477V302.311z"/>
	<path class="st0" d="M82.621,418.108v32.07c0,29.832,24.184,54.015,54.02,54.015h238.718c29.836,0,54.02-24.183,54.02-54.015
		v-32.07H82.621z"/>
	<polygon class="st0" points="152.145,142.896 152.145,166.022 152.145,166.092 152.145,166.092 152.145,166.252 181.383,166.252 
		181.383,242.354 181.383,242.584 181.383,242.584 181.383,242.744 210.457,242.744 210.457,166.252 239.699,166.252 
		239.699,142.896 	"/>
	<polygon class="st0" points="359.793,143.057 359.855,142.896 329.207,142.896 317.859,173.369 309.18,196.342 289.274,142.896 
		267.117,142.896 258.946,142.838 258.969,142.896 258.797,142.896 298.617,242.744 319.863,242.744 349.027,169.936 
		359.855,143.057 	"/>
</g>
</svg>
