<?xml version="1.0" encoding="iso-8859-1"?>
<!-- Generator: Adobe Illustrator 19.0.0, SVG Export Plug-In . SVG Version: 6.00 Build 0)  -->
<svg version="1.1" id="Layer_1" xmlns="http://www.w3.org/2000/svg" xmlns:xlink="http://www.w3.org/1999/xlink" x="0px" y="0px"
	 viewBox="0 0 512 512" style="enable-background:new 0 0 512 512;" xml:space="preserve">
<polygon style="fill:#5D9CEC;" points="219.336,113.672 232,221 285.344,221 299.344,113.672 "/>
<polygon style="fill:#EC87C0;" points="267,6.672 256,33.172 259.336,56.672 272.5,75.172 293.75,75.172 312,58.672 320.5,19.172 
	"/>
<path style="fill:#965353;" d="M479,226.531L386.5,221c0,0-344,6-345.5,5.5L23.5,233v15L36,266h436l17.5-20L479,226.531z"/>
<g>
	<polygon style="fill:#FFE1C5;" points="79,272 91.5,503 125,500 137,275 	"/>
	<polygon style="fill:#FFE1C5;" points="378,272 390.5,503 424,500 436,275 	"/>
	<rect x="137" y="272" style="fill:#FFE1C5;" width="238" height="50"/>
</g>
<path style="fill:#080808;" d="M469.344,213.313H293.688l16.75-106.656h-30l4.125-18.625c20.797-1.078,39.469-18.938,44.859-43.281
	c2.313-10.453,1.406-18.688-2.766-25.188c-6.375-9.875-18.125-12.344-29.469-14.75c-1.406-0.281-2.844-0.594-4.281-0.906
	c-1.469-0.328-2.875-0.656-4.281-0.984C282.125,1.406,275.969,0,269.977,0C255.32,0,246,8.563,242.258,25.469
	c-2.984,13.469-1.547,27.188,4.031,38.594c4.133,8.469,10.164,15,17.492,19.094l-5.195,23.5h-56.758l16.727,106.656H42.656
	c-17.641,0-32,14.359-32,32c0,17.656,14.359,32,32,32h27.141L80.469,512h52.383l8.242-181.344h229.813L379.156,512h52.375
	l10.672-234.688h27.141c17.641,0,32-14.344,32-32C501.344,227.672,486.984,213.313,469.344,213.313z M282.563,66.75
	c-1.219,0-2.438-0.125-3.625-0.391c-2.672-0.594-5.156-1.844-7.344-3.656c10.563-2.063,21.719-5.359,31.016-8.484
	C297.453,61.859,290.063,66.75,282.563,66.75z M263.086,30.078c1.938-8.75,4.125-8.75,6.891-8.75c3.555,0,8.555,1.156,13.836,2.375
	c1.469,0.344,2.969,0.688,4.469,1.016c1.531,0.344,3.031,0.656,4.5,0.969c5.297,1.125,11.641,2.469,14.563,4.25
	c-12.109,4.5-30.797,10.656-45.125,12.75C261.859,38.625,262.141,34.359,263.086,30.078z M285.484,127.984l-13.391,85.328h-15.25
	l18.875-85.328C275.718,127.984,285.484,127.984,285.484,127.984z M253.867,127.984l-15.852,71.672l-11.25-71.672
	C226.765,127.984,253.867,127.984,253.867,127.984z M114.406,448H98.914l-7.758-170.688h31.008L114.406,448z M100.852,490.656
	l-0.969-21.328h13.555l-0.969,21.328H100.852z M142.07,309.313l1.453-32H160c0,5.906,4.773,10.672,10.664,10.672
	s10.664-4.766,10.664-10.672h21.336c0,5.906,4.773,10.672,10.664,10.672S224,283.219,224,277.313h21.336
	c0,5.906,4.773,10.672,10.664,10.672c5.891,0,10.664-4.766,10.664-10.672H288c0,5.906,4.781,10.672,10.672,10.672
	s10.672-4.766,10.672-10.672h21.328c0,5.906,4.766,10.672,10.672,10.672c5.875,0,10.656-4.766,10.656-10.672h16.469l1.469,32H142.07
	z M399.531,490.656l-0.969-21.328h13.563l-0.969,21.328H399.531z M413.094,448h-15.5l-7.75-170.688h31L413.094,448z
	 M469.344,255.984h-26.172H367.5H144.492H68.828H42.656c-5.883,0-10.664-4.781-10.664-10.672c0-5.875,4.781-10.656,10.664-10.656
	h179.25h68.438h179c5.875,0,10.656,4.781,10.656,10.656C480,251.203,475.219,255.984,469.344,255.984z"/>
<g>
</g>
<g>
</g>
<g>
</g>
<g>
</g>
<g>
</g>
<g>
</g>
<g>
</g>
<g>
</g>
<g>
</g>
<g>
</g>
<g>
</g>
<g>
</g>
<g>
</g>
<g>
</g>
<g>
</g>
</svg>
